<svg width="14" height="16" viewBox="0 0 14 16" fill="none" xmlns="http://www.w3.org/2000/svg">
<path d="M1.82842 8.4853L7.48528 2.82845C8.65685 1.65688 10.5563 1.65688 11.7279 2.82845C12.8995 4.00002 12.8995 5.89952 11.7279 7.07109L5.0104 13.7886C4.42462 14.3744 3.47487 14.3744 2.88908 13.7886C2.3033 13.2028 2.3033 12.2531 2.88908 11.6673L8.89949 5.65687C9.09475 5.46161 9.09475 5.14503 8.89949 4.94977C8.70423 4.75451 8.38765 4.75451 8.19238 4.94977L2.18198 10.9602C1.20566 11.9365 1.20566 13.5194 2.18198 14.4957C3.15829 15.472 4.7412 15.472 5.71751 14.4957L12.435 7.77819C13.9971 6.2161 13.9971 3.68344 12.435 2.12134C10.8729 0.559244 8.34027 0.559244 6.77817 2.12134L1.12132 7.77819C0.926053 7.97346 0.926053 8.29004 1.12132 8.4853C1.31658 8.68056 1.63316 8.68056 1.82842 8.4853Z" fill="#605E5C"/>
</svg>
