<?xml version="1.0" standalone="no"?>
<!DOCTYPE svg PUBLIC "-//W3C//DTD SVG 20010904//EN"
 "http://www.w3.org/TR/2001/REC-SVG-20010904/DTD/svg10.dtd">
<svg version="1.0" xmlns="http://www.w3.org/2000/svg"
 width="672.000000pt" height="672.000000pt" viewBox="0 0 672.000000 672.000000"
 preserveAspectRatio="xMidYMid meet">
<metadata>
Created by potrace 1.14, written by Peter Selinger 2001-2017
</metadata>
<g transform="translate(0.000000,672.000000) scale(0.100000,-0.100000)"
fill="#000000" stroke="none">
<path d="M3148 6715 c-1 -2 -39 -6 -83 -9 -44 -3 -91 -8 -105 -10 -26 -4 -113
-17 -140 -21 -14 -2 -95 -18 -148 -29 -13 -3 -31 -7 -40 -10 -9 -3 -28 -7 -42
-10 -14 -3 -65 -17 -115 -31 -49 -14 -94 -27 -100 -28 -12 -3 -27 -9 -195 -73
-141 -55 -470 -218 -490 -244 -3 -3 -27 -19 -55 -35 -27 -16 -55 -33 -62 -39
-7 -6 -36 -27 -64 -46 -202 -138 -488 -410 -659 -625 -30 -39 -58 -71 -62 -73
-5 -2 -8 -8 -8 -13 0 -7 -39 -64 -78 -114 -4 -5 -33 -53 -65 -105 -31 -52 -60
-99 -64 -105 -10 -12 -138 -267 -138 -275 -1 -3 -11 -27 -23 -54 -12 -27 -22
-50 -22 -52 0 -1 -5 -15 -12 -31 -6 -15 -12 -32 -14 -38 -1 -5 -8 -23 -15 -40
-6 -16 -13 -34 -14 -40 -2 -5 -12 -38 -24 -72 -19 -55 -65 -224 -75 -277 -3
-11 -10 -46 -16 -76 -6 -30 -13 -68 -15 -85 -2 -16 -7 -46 -10 -65 -24 -144
-29 -235 -29 -470 1 -180 8 -375 14 -375 1 0 5 -22 14 -90 2 -22 9 -65 15 -95
6 -30 13 -71 16 -90 3 -19 12 -57 20 -85 8 -27 16 -62 19 -78 10 -60 121 -382
138 -402 4 -5 8 -15 8 -22 0 -7 24 -63 53 -124 l54 -112 -19 -66 c-11 -36 -21
-73 -23 -81 -2 -8 -34 -121 -70 -250 -67 -239 -84 -299 -109 -393 -8 -28 -42
-148 -75 -266 -54 -192 -60 -223 -57 -290 4 -84 16 -124 57 -191 33 -53 78
-97 135 -133 44 -27 141 -60 155 -52 4 3 10 1 14 -5 4 -6 10 -8 14 -6 4 3 32
7 62 10 30 3 84 14 121 25 36 11 69 17 72 13 3 -3 6 -1 6 5 0 5 6 10 13 11 18
1 199 49 257 68 8 3 15 5 15 5 0 0 41 11 90 25 83 24 137 39 175 48 8 3 105
30 215 61 110 31 207 58 215 60 8 3 37 10 65 18 47 12 52 12 100 -13 116 -59
391 -170 457 -185 13 -2 55 -14 93 -25 39 -12 131 -34 205 -50 117 -24 165
-33 265 -46 11 -1 20 -3 20 -4 0 -3 129 -10 238 -14 65 -2 120 -6 123 -8 2 -3
22 -2 44 2 21 4 44 4 51 -1 7 -4 17 -5 23 -2 5 3 36 7 70 8 131 6 255 21 476
60 121 21 461 125 540 165 19 10 37 18 40 18 9 1 54 19 112 46 32 15 61 26 64
25 4 0 10 3 13 8 3 4 40 26 81 47 41 21 81 44 89 50 7 5 20 11 29 12 8 2 18 6
21 11 8 11 89 63 98 63 5 0 20 10 36 23 15 12 50 38 78 57 172 118 433 356
572 521 92 109 138 166 157 194 53 79 77 112 93 129 9 11 17 24 17 28 0 11 53
92 63 96 4 2 7 12 7 23 0 10 3 19 8 19 4 0 12 10 18 23 6 12 36 69 66 127 100
192 231 541 254 680 3 14 7 33 10 42 3 9 7 27 10 40 16 77 26 127 29 153 2 17
7 46 10 65 36 220 41 651 11 870 -3 19 -8 51 -10 70 -29 210 -122 554 -194
720 -9 19 -16 37 -17 40 -12 41 -134 287 -182 367 -21 35 -58 96 -83 138 -25
41 -48 75 -52 75 -5 0 -8 4 -8 10 0 5 -6 18 -14 27 -8 10 -49 62 -91 117 -95
122 -122 152 -265 297 -109 110 -303 279 -372 324 -8 6 -49 33 -89 61 -152
104 -327 202 -509 283 -52 24 -99 44 -105 45 -5 2 -17 6 -25 9 -117 49 -366
122 -515 151 -44 9 -91 19 -105 22 -14 2 -45 7 -70 10 -25 2 -58 7 -75 10 -16
3 -50 8 -75 10 -60 5 -527 14 -532 9z m500 -489 c24 -2 62 -8 85 -12 23 -4 51
-8 62 -9 30 -3 98 -15 117 -21 9 -3 26 -7 37 -9 12 -3 29 -7 39 -9 9 -2 39 -9
66 -15 140 -33 445 -152 579 -228 33 -18 62 -33 66 -33 4 0 13 -6 20 -12 6 -7
15 -13 19 -13 8 0 184 -114 192 -124 3 -3 23 -19 46 -34 22 -15 49 -35 60 -45
10 -9 37 -30 59 -47 64 -47 315 -302 384 -390 34 -44 68 -87 74 -95 11 -14
127 -191 154 -235 23 -36 148 -289 166 -335 10 -25 22 -54 27 -65 38 -92 106
-324 125 -425 42 -233 49 -305 49 -545 0 -173 -5 -272 -19 -375 -2 -14 -6 -44
-9 -67 -3 -23 -10 -61 -16 -85 -6 -24 -13 -54 -16 -68 -38 -192 -118 -417
-221 -623 -180 -358 -396 -627 -726 -904 -47 -40 -170 -128 -242 -175 -63 -40
-96 -59 -245 -140 -91 -50 -359 -154 -475 -185 -23 -6 -101 -25 -115 -28 -8
-2 -15 -4 -15 -5 0 -1 -9 -3 -20 -5 -11 -1 -40 -7 -65 -13 -25 -6 -65 -13 -90
-17 -25 -3 -56 -8 -70 -10 -112 -20 -496 -27 -630 -12 -36 4 -83 10 -105 12
-55 6 -104 13 -124 19 -9 3 -32 8 -51 11 -19 3 -53 10 -75 16 -22 5 -47 11
-55 13 -80 20 -161 43 -195 57 -11 4 -47 17 -80 29 -97 34 -131 50 -304 137
-163 82 -165 83 -205 71 -23 -7 -45 -13 -51 -14 -5 0 -17 -4 -25 -7 -8 -3 -44
-13 -80 -22 -36 -10 -72 -19 -80 -22 -8 -4 -24 -8 -35 -10 -11 -2 -36 -9 -55
-15 -19 -6 -37 -11 -40 -11 -3 0 -29 -8 -58 -18 -30 -10 -57 -18 -60 -17 -4 1
-34 -6 -67 -16 -53 -16 -172 -50 -215 -61 -8 -2 -15 -4 -15 -5 0 -1 -7 -3 -15
-5 -8 -1 -73 -19 -145 -39 -313 -89 -289 -84 -282 -60 4 11 9 30 11 44 3 14
19 72 36 130 17 58 33 112 34 120 2 8 10 35 17 60 7 25 13 50 15 57 2 10 31
113 70 248 10 33 19 66 21 73 1 6 4 18 6 25 20 73 30 109 42 147 7 25 16 56
19 70 3 14 21 81 41 150 l35 125 -94 186 c-52 103 -99 202 -105 221 -5 18 -23
71 -40 118 -17 47 -33 94 -36 105 -3 11 -16 63 -30 115 -14 52 -28 111 -31
130 -3 19 -7 41 -10 48 -2 8 -7 37 -10 65 -4 29 -8 54 -9 57 -10 17 -20 202
-19 375 0 207 5 292 29 430 3 17 8 46 11 65 3 19 7 43 10 52 3 10 7 28 9 40 3
13 14 59 26 103 11 44 22 87 24 95 2 8 4 16 5 18 2 1 3 5 5 10 1 4 4 14 7 22
3 8 13 35 21 60 9 25 22 59 28 75 7 17 13 36 15 42 5 25 29 73 36 73 5 0 7 3
6 8 -4 13 26 82 36 82 5 0 7 3 4 6 -3 3 11 37 33 75 21 38 41 79 44 89 4 11
10 20 14 20 4 0 13 12 20 28 32 68 209 312 296 407 116 126 212 219 290 280
28 22 52 43 55 46 10 12 157 117 225 161 156 101 345 194 520 258 50 18 97 35
105 38 17 6 34 11 53 15 6 1 18 6 25 11 7 4 16 5 19 2 3 -3 11 -2 17 3 6 5 38
15 71 22 33 7 62 13 65 14 3 1 23 5 45 9 22 4 47 10 55 13 8 4 19 5 23 4 5 -1
34 3 65 8 32 6 89 13 127 17 39 3 71 7 73 9 5 4 443 -3 490 -9z"/>
<path d="M2310 4320 c0 -6 -5 -8 -10 -5 -6 4 -25 2 -43 -4 -17 -6 -34 -10 -37
-9 -6 3 -53 -37 -86 -72 -51 -53 -66 -186 -30 -257 38 -72 113 -123 191 -129
22 -1 42 -3 45 -4 3 -1 25 -1 50 -1 51 2 47 2 152 0 42 -1 80 1 85 4 5 3 15 2
22 -3 8 -4 25 -4 40 0 14 4 35 4 46 0 11 -4 29 -4 41 0 11 5 27 5 34 0 7 -4
26 -4 42 1 16 4 38 4 50 0 11 -4 40 -4 64 -1 24 4 44 4 44 1 0 -7 87 -4 106 3
8 3 14 2 14 -2 0 -8 85 -6 106 2 8 3 14 2 14 -2 0 -8 85 -6 106 2 8 3 14 2 14
-2 0 -6 50 -6 215 -2 11 0 27 0 35 0 17 -1 76 -1 105 0 11 1 27 1 35 0 8 0 26
0 40 1 14 1 32 1 40 1 8 -1 62 -1 120 -1 58 0 113 -1 123 -1 40 0 108 0 120 1
6 0 36 -1 65 -3 28 -2 52 1 52 5 0 5 5 5 11 1 17 -10 133 -3 145 9 4 4 16 7
26 7 10 0 18 3 18 8 0 4 14 16 31 27 66 43 103 150 84 239 -16 74 -83 147
-159 173 -28 9 -55 16 -60 15 -8 -3 -143 -3 -196 -1 -8 0 -40 0 -70 0 -61 -1
-178 -1 -345 0 -60 0 -119 0 -130 -1 -25 -2 -19 -2 -145 -1 -58 1 -140 1 -182
1 -43 1 -84 1 -90 1 -7 0 -38 0 -68 0 -61 -1 -178 -1 -345 0 -60 0 -119 0
-130 -1 -25 -2 -14 -1 -170 -1 -186 0 -218 1 -227 7 -4 3 -8 0 -8 -6z"/>
<path d="M2369 3205 c-2 -2 -29 -5 -59 -8 -142 -11 -232 -113 -225 -254 6
-121 84 -201 211 -219 45 -6 175 -8 199 -4 6 1 13 2 17 1 6 -1 155 -1 198 0 8
0 80 0 160 0 80 0 152 0 160 0 8 0 80 0 160 0 80 0 152 0 160 0 102 1 324 0
355 -2 133 -5 217 38 274 140 20 36 18 156 -3 201 -8 19 -24 44 -34 56 -31 37
-103 76 -146 80 -68 6 -164 6 -175 0 -5 -4 -12 -3 -14 2 -3 4 -37 5 -77 2 -39
-3 -73 -4 -75 -1 -8 7 -105 6 -105 -2 0 -5 -4 -6 -10 -2 -5 3 -49 5 -97 5 -48
-1 -106 -1 -128 0 -22 1 -61 2 -88 3 -26 1 -47 -1 -47 -4 0 -3 -19 -3 -42 0
-24 4 -60 4 -80 0 -21 -3 -40 -4 -42 -1 -9 8 -106 7 -106 -1 0 -5 -4 -5 -10
-2 -12 8 -269 9 -276 2 -4 -3 -16 -2 -29 3 -13 5 -25 7 -26 5z"/>
</g>
</svg>
